<?xml version="1.0" encoding="utf-8"?>
<!-- Generator: Adobe Illustrator 23.0.1, SVG Export Plug-In . SVG Version: 6.00 Build 0)  -->
<svg version="1.1" id="Layer_1" xmlns="http://www.w3.org/2000/svg" xmlns:xlink="http://www.w3.org/1999/xlink" x="0px" y="0px"
	 viewBox="0 0 62.4 83.8" style="enable-background:new 0 0 62.4 83.8;" xml:space="preserve">
<style type="text/css">
	.st0{fill:none;stroke:#444444;stroke-width:2;stroke-linejoin:round;}
</style>
<title>mobileapp</title>
<g>
	<path class="st0" d="M60.2,28.5c0-9.2-7.4-16.6-16.6-16.6c-9.2,0-16.6,7.4-16.6,16.6c0,7.3,4.8,13.6,11.4,15.8V82l10.6-4.2V44.3
		C55.4,42.1,60.2,35.9,60.2,28.5z"/>
	<line class="st0" x1="48.8" y1="68.7" x2="43.5" y2="70.7"/>
	<line class="st0" x1="48.8" y1="59.5" x2="43.5" y2="61.4"/>
	<line class="st0" x1="48.8" y1="49.5" x2="43.5" y2="51.5"/>
</g>
<g>
	<path class="st0" d="M24.9,19.8c-2,1.1-3.7,2.6-5.1,4.6c-3.5,5.2-3.1,11.9,0.6,16.6L2.5,67.7l9.5,2.1l16-23.8
		c0.6,0.2,1.3,0.3,1.9,0.4c0.9,0.1,1.8,0.1,2.6,0.1"/>
	<line class="st0" x1="16.2" y1="63.4" x2="11.5" y2="62.2"/>
	<line class="st0" x1="20.7" y1="56.8" x2="15.9" y2="55.6"/>
	<line class="st0" x1="25.4" y1="49.7" x2="20.6" y2="48.5"/>
</g>
<circle class="st0" cx="43.6" cy="21.7" r="5.3"/>
<path class="st0" d="M23.8,16.4c-0.2-1.6-0.1-3.3,0.3-4.9c1.7-6.6,8-10.7,14.1-9.1s9.8,8.1,8.1,14.7c-0.7,2.6-2.1,4.8-3.9,6.5"/>
</svg>
