<?xml version="1.0" encoding="utf-8"?>
<!-- Generator: Adobe Illustrator 23.0.1, SVG Export Plug-In . SVG Version: 6.00 Build 0)  -->
<svg version="1.1" id="Layer_1" xmlns="http://www.w3.org/2000/svg" xmlns:xlink="http://www.w3.org/1999/xlink" x="0px" y="0px"
	 viewBox="0 0 72 72" style="enable-background:new 0 0 72 72;" xml:space="preserve">
<style type="text/css">
	.st0{fill:none;stroke:#444444;stroke-width:2;stroke-linejoin:round;}
</style>
<title>desktop</title>
<g>
	<g id="Layer_1-2">
		<path class="st0" d="M37.5,52.7c0,10.1-8.2,18.3-18.3,18.3S1,62.7,1,52.7c0,0,0,0,0,0V25.1c0-5,4.1-9.1,9.1-9.1h18.3
			c5.1,0,9.1,4.1,9.1,9.2c0,0,0,0,0,0V52.7z"/>
		<line class="st0" x1="1" y1="31.2" x2="37.5" y2="31.2"/>
		<path class="st0" d="M19.3,31.2V14.4c0-18.1,30.4-18.2,30.4,1.6v7.6c0,17.3,21.3,17.3,21.3,0V5.3"/>
	</g>
</g>
</svg>
