<svg xmlns="http://www.w3.org/2000/svg" viewBox="0 0 59.83 72"><defs><style>.cls-1{fill:none;stroke:#aebd37;stroke-linejoin:round;stroke-width:2px;}</style></defs><title>emscampus</title><g id="Layer_2" data-name="Layer 2"><g id="Layer_1-2" data-name="Layer 1"><path class="cls-1" d="M29.91,68c4.57,0,1.52,3,10.66,3S58.83,52.74,58.83,40.57,51.22,19.26,42.09,19.26s-9.13,3-12.18,3-3-3-12.17-3S1,28.39,1,40.57,10.13,71,19.26,71,25.35,68,29.91,68Z"/><path class="cls-1" d="M29.91,22.3V16.22a6.11,6.11,0,0,0-6.08-6.09H17.74"/><path class="cls-1" d="M36,14.7A13.7,13.7,0,0,0,49.7,1,13.7,13.7,0,0,0,36,14.7Z"/></g></g></svg>