<?xml version="1.0" encoding="utf-8"?>
<!-- Generator: Adobe Illustrator 23.0.1, SVG Export Plug-In . SVG Version: 6.00 Build 0)  -->
<svg version="1.1" id="Layer_1" xmlns="http://www.w3.org/2000/svg" xmlns:xlink="http://www.w3.org/1999/xlink" x="0px" y="0px"
	 viewBox="0 0 59.8 72" style="enable-background:new 0 0 59.8 72;" xml:space="preserve">
<style type="text/css">
	.st0{fill:none;stroke:#444444;stroke-width:2;stroke-linejoin:round;}
</style>
<title>emscampus</title>
<g>
	<g id="Layer_1-2">
		<path class="st0" d="M29.9,68c4.6,0,1.5,3,10.7,3s18.3-18.3,18.3-30.4s-7.6-21.3-16.7-21.3s-9.1,3-12.2,3s-3-3-12.2-3
			S1,28.4,1,40.6S10.1,71,19.3,71S25.4,68,29.9,68z"/>
		<path class="st0" d="M29.9,22.3v-6.1c0-3.4-2.7-6.1-6.1-6.1h-6.1"/>
		<path class="st0" d="M36,14.7c7.6,0,13.7-6.1,13.7-13.7c0,0,0,0,0,0C42.1,1,36,7.1,36,14.7C36,14.7,36,14.7,36,14.7z"/>
	</g>
</g>
</svg>
