<svg xmlns="http://www.w3.org/2000/svg" viewBox="0 0 32 32"><defs><style>.cls-1{fill:#999;}</style></defs><title>googleplus</title><g id="Layer_2" data-name="Layer 2"><g id="RAW_ICONS_-_SQUARE_ROUNDED_CIRCLE" data-name="RAW ICONS - SQUARE / ROUNDED / CIRCLE"><path class="cls-1" d="M12.75,8.77c-1.27,0-2.12,1.24-1.9,2.91a3.08,3.08,0,0,0,2.7,2.87c1.27,0,2-1,1.78-2.71S14,8.81,12.75,8.77Z"/><path class="cls-1" d="M13.29,18c-1.9,0-3.5,1.19-3.5,2.6s1.36,2.64,3.26,2.64c2.66,0,3.59-1.12,3.59-2.56a2.1,2.1,0,0,0-.06-.51c-.21-.82-1-1.26-2.07-2A4,4,0,0,0,13.29,18Z"/><path class="cls-1" d="M16,0A16,16,0,1,0,32,16,16,16,0,0,0,16,0Zm1.22,11.77a3.17,3.17,0,0,1-1.39,2.52c-.8.63-.95.89-.95,1.42s.95,1.12,1.39,1.45C17.79,18.3,18.1,19,18.1,20.45c0,1.78-1.92,3.55-5,3.55C10.32,24,8,22.89,8,21.1s1.91-3.69,4.65-3.69h.86a1.63,1.63,0,0,1-.68-1.23,2.07,2.07,0,0,1,.25-.92l-.46,0a3.38,3.38,0,0,1-3.56-3.56c0-1.94,2-3.71,4.39-3.71h4.72L17.12,9.11H15.88A3,3,0,0,1,17.22,11.77ZM24,11.48H21.82v2.18H20.73V11.48H18.56V10.39h2.17V8.22h1.09v2.17H24Z"/></g></g></svg>