<?xml version="1.0" encoding="utf-8"?>
<!-- Generator: Adobe Illustrator 23.0.1, SVG Export Plug-In . SVG Version: 6.00 Build 0)  -->
<svg version="1.1" id="Layer_1" xmlns="http://www.w3.org/2000/svg" xmlns:xlink="http://www.w3.org/1999/xlink" x="0px" y="0px"
	 viewBox="0 0 72 72" style="enable-background:new 0 0 72 72;" xml:space="preserve">
<style type="text/css">
	.st0{fill:none;stroke:#444444;stroke-width:2;stroke-linecap:round;stroke-linejoin:round;}
	.st1{fill:none;stroke:#444444;stroke-width:2;stroke-linejoin:round;}
</style>
<title>regics</title>
<g>
	<g id="Layer_1-2">
		<rect x="10.1" y="1" class="st0" width="51.7" height="70"/>
		<path class="st0" d="M10.1,1H4C2.4,1,1,2.4,1,4v64c0,1.6,1.4,3,3,3h6.1"/>
		<path class="st1" d="M39,36v4.6l7.7,2.2c1.7,0.6,2.9,2.1,2.9,3.9v9.1H19.3v-9.1c0.1-1.8,1.2-3.3,2.9-3.9l7.7-2.2V36"/>
		<path class="st1" d="M43.6,27.7c0,5.5-4.1,10-9.1,10s-9.1-4.5-9.1-10s4.1-10,9.1-10S43.6,22.2,43.6,27.7z"/>
		<path class="st1" d="M43.5,25.9c-1.5,1.5-5.9,1.5-7.5-1.5c-3,3-8,3-10.5,1.3"/>
		<path class="st1" d="M61.9,5.6h3c3.4,0,6.1,2.7,6.1,6.1v9.1h-9.1"/>
		<polyline class="st1" points="61.9,20.8 71,20.8 71,36 61.9,36 		"/>
		<polyline class="st1" points="61.9,36 71,36 71,51.2 61.9,51.2 		"/>
		<path class="st1" d="M61.9,51.2H71v9.1c0,3.4-2.7,6.1-6.1,6.1h-3"/>
	</g>
</g>
</svg>
