<svg xmlns="http://www.w3.org/2000/svg" viewBox="0 0 72 72"><defs><style>.cls-1{fill:none;stroke:#aebd37;stroke-linejoin:round;stroke-width:2px;}</style></defs><title>kiosk</title><g id="Layer_2" data-name="Layer 2"><g id="Layer_1-2" data-name="Layer 1"><path class="cls-1" d="M22.3,52.74H7.09A6.09,6.09,0,0,1,1,46.65V7.09A6.09,6.09,0,0,1,7.09,1H64.91A6.09,6.09,0,0,1,71,7.09V34.48"/><polyline class="cls-1" points="22.3 46.65 13.17 46.65 13.17 7.09 61.87 7.09 61.87 34.48"/><path class="cls-1" d="M66.43,25.35A1.52,1.52,0,1,0,68,26.87a1.53,1.53,0,0,0-1.53-1.52Z"/><path class="cls-1" d="M52.74,40V23.73c0-1.62-.66-2.95-2.28-2.95H46.05c-1.62,0-2.44,1.33-2.44,2.95V51.8l-5.24-6.27A3.14,3.14,0,0,0,36,44.41l-3,.06a3,3,0,0,0-2.62,4.37L41.66,69.46A2.92,2.92,0,0,0,44.23,71H63.66a3,3,0,0,0,2.72-1.82L71,48.84a2.88,2.88,0,0,0-1.8-3Z"/><path class="cls-1" d="M8.61,26.87a1.52,1.52,0,0,1-1.52,1.52h0a1.52,1.52,0,0,1-1.52-1.52h0a1.52,1.52,0,0,1,1.52-1.52h0a1.52,1.52,0,0,1,1.52,1.52Z"/></g></g></svg>