<?xml version="1.0" encoding="utf-8"?>
<!-- Generator: Adobe Illustrator 23.0.1, SVG Export Plug-In . SVG Version: 6.00 Build 0)  -->
<svg version="1.1" id="Layer_1" xmlns="http://www.w3.org/2000/svg" xmlns:xlink="http://www.w3.org/1999/xlink" x="0px" y="0px"
	 viewBox="0 0 72 72" style="enable-background:new 0 0 72 72;" xml:space="preserve">
<style type="text/css">
	.st0{fill:none;stroke:#444444;stroke-width:2;stroke-linejoin:round;}
</style>
<title>kiosk</title>
<g>
	<g id="Layer_1-2">
		<path class="st0" d="M22.3,52.7H7.1C3.7,52.7,1,50,1,46.7c0,0,0,0,0,0V7.1C1,3.7,3.7,1,7.1,1c0,0,0,0,0,0h57.8
			C68.3,1,71,3.7,71,7.1v27.4"/>
		<polyline class="st0" points="22.3,46.7 13.2,46.7 13.2,7.1 61.9,7.1 61.9,34.5 		"/>
		<path class="st0" d="M66.4,25.4c-0.8,0-1.5,0.7-1.5,1.6s0.7,1.5,1.6,1.5c0.8,0,1.5-0.7,1.5-1.5C68,26,67.3,25.3,66.4,25.4
			L66.4,25.4z"/>
		<path class="st0" d="M52.7,40V23.7c0-1.6-0.7-3-2.3-3H46c-1.6,0-2.4,1.3-2.4,3v28.1l-5.2-6.3c-0.6-0.7-1.5-1.1-2.4-1.1l-3,0.1
			c-1.7,0-3,1.4-3,3c0,0.5,0.1,0.9,0.3,1.3l11.3,20.6c0.5,0.9,1.5,1.5,2.6,1.5h19.4c1.2,0,2.3-0.7,2.7-1.8L71,48.8
			c0.1-1.3-0.6-2.5-1.8-3L52.7,40z"/>
		<path class="st0" d="M8.6,26.9c0,0.8-0.7,1.5-1.5,1.5h0l0,0c-0.8,0-1.5-0.7-1.5-1.5l0,0l0,0c0-0.8,0.7-1.5,1.5-1.5h0l0,0
			C7.9,25.4,8.6,26,8.6,26.9L8.6,26.9z"/>
	</g>
</g>
</svg>
