<?xml version="1.0" encoding="utf-8"?>
<!-- Generator: Adobe Illustrator 23.0.1, SVG Export Plug-In . SVG Version: 6.00 Build 0)  -->
<svg version="1.1" id="Layer_1" xmlns="http://www.w3.org/2000/svg" xmlns:xlink="http://www.w3.org/1999/xlink" x="0px" y="0px"
	 viewBox="0 0 72 65.9" style="enable-background:new 0 0 72 65.9;" xml:space="preserve">
<style type="text/css">
	.st0{fill:none;stroke:#444444;stroke-width:2;stroke-linejoin:round;}
</style>
<title>microsoft</title>
<g>
	<g id="Layer_1-2">
		<path class="st0" d="M36,55.8H7.1c-3.4,0-6.1-2.7-6.1-6.1V7.1C1,3.7,3.7,1,7.1,1c0,0,0,0,0,0h57.8C68.3,1,71,3.7,71,7.1v22.8"/>
		<line class="st0" x1="1" y1="16.2" x2="71" y2="16.2"/>
		<circle class="st0" cx="11.6" cy="8.6" r="1.5"/>
		<circle class="st0" cx="20.8" cy="8.6" r="1.5"/>
		<circle class="st0" cx="29.9" cy="8.6" r="1.5"/>
		<line class="st0" x1="55.8" y1="25.4" x2="25.4" y2="25.4"/>
		<line class="st0" x1="13.2" y1="25.4" x2="16.2" y2="25.4"/>
		<line class="st0" x1="37.5" y1="34.5" x2="25.4" y2="34.5"/>
		<line class="st0" x1="13.2" y1="34.5" x2="16.2" y2="34.5"/>
		<line class="st0" x1="37.5" y1="43.6" x2="25.4" y2="43.6"/>
		<line class="st0" x1="13.2" y1="43.6" x2="16.2" y2="43.6"/>
		<path class="st0" d="M71,64.9c-0.2-7.6-6.5-13.5-14.1-13.3c-7.3,0.2-13.1,6-13.3,13.3H71z"/>
		<circle class="st0" cx="57.3" cy="42.8" r="8.4"/>
	</g>
</g>
</svg>
