<svg xmlns="http://www.w3.org/2000/svg" viewBox="0 0 72 65.91"><defs><style>.cls-1{fill:none;stroke:#aebd37;stroke-linejoin:round;stroke-width:2px;}</style></defs><title>microsoft</title><g id="Layer_2" data-name="Layer 2"><g id="Layer_1-2" data-name="Layer 1"><path class="cls-1" d="M36,55.78H7.09A6.09,6.09,0,0,1,1,49.7V7.09A6.09,6.09,0,0,1,7.09,1H64.91A6.09,6.09,0,0,1,71,7.09V29.91"/><line class="cls-1" x1="1" y1="16.22" x2="71" y2="16.22"/><circle class="cls-1" cx="11.65" cy="8.61" r="1.52"/><circle class="cls-1" cx="20.78" cy="8.61" r="1.52"/><circle class="cls-1" cx="29.91" cy="8.61" r="1.52"/><line class="cls-1" x1="55.78" y1="25.35" x2="25.35" y2="25.35"/><line class="cls-1" x1="13.17" y1="25.35" x2="16.22" y2="25.35"/><line class="cls-1" x1="37.52" y1="34.48" x2="25.35" y2="34.48"/><line class="cls-1" x1="13.17" y1="34.48" x2="16.22" y2="34.48"/><line class="cls-1" x1="37.52" y1="43.61" x2="25.35" y2="43.61"/><line class="cls-1" x1="13.17" y1="43.61" x2="16.22" y2="43.61"/><path class="cls-1" d="M71,64.91a13.7,13.7,0,0,0-27.39,0Z"/><circle class="cls-1" cx="57.3" cy="42.85" r="8.37"/></g></g></svg>