<?xml version="1.0" encoding="utf-8"?>
<!-- Generator: Adobe Illustrator 23.0.1, SVG Export Plug-In . SVG Version: 6.00 Build 0)  -->
<svg version="1.1" id="Layer_1" xmlns="http://www.w3.org/2000/svg" xmlns:xlink="http://www.w3.org/1999/xlink" x="0px" y="0px"
	 viewBox="0 0 47.7 72" style="enable-background:new 0 0 47.7 72;" xml:space="preserve">
<style type="text/css">
	.st0{fill:none;stroke:#444444;stroke-width:2;stroke-linejoin:round;}
</style>
<title>mobileapp</title>
<g>
	<g id="Layer_1-2">
		<path class="st0" d="M10.1,13.2h27.4c1.7,0,3,1.4,3,3v33.5c0,1.7-1.4,3-3,3H10.1c-1.7,0-3-1.4-3-3V16.2
			C7.1,14.5,8.5,13.2,10.1,13.2z"/>
		<path class="st0" d="M10.1,1h27.4c5,0,9.1,4.1,9.1,9.1v51.7c0,5-4.1,9.1-9.1,9.1H10.1c-5,0-9.1-4.1-9.1-9.1V10.1
			C1,5.1,5.1,1,10.1,1z"/>
		<line class="st0" x1="16.2" y1="7.1" x2="31.4" y2="7.1"/>
		<polygon class="st0" points="14.7,60.3 11.6,60.3 11.6,63.4 14.7,63.4 14.7,60.3 		"/>
		<polygon class="st0" points="36,60.3 33,60.3 33,63.4 36,63.4 36,60.3 		"/>
		<rect x="19.3" y="58.8" class="st0" width="9.1" height="6.1"/>
	</g>
</g>
</svg>
