<svg xmlns="http://www.w3.org/2000/svg" viewBox="0 0 72 72"><defs><style>.cls-1,.cls-2{fill:none;stroke:#aebd37;stroke-linejoin:round;stroke-width:2px;}.cls-1{stroke-linecap:round;}</style></defs><title>regics</title><g id="Layer_2" data-name="Layer 2"><g id="Layer_1-2" data-name="Layer 1"><rect class="cls-1" x="10.13" y="1" width="51.74" height="70"/><path class="cls-1" d="M10.13,1H4A3.05,3.05,0,0,0,1,4V68a3.05,3.05,0,0,0,3,3h6.09"/><path class="cls-2" d="M39,36v4.57l7.73,2.2a4.29,4.29,0,0,1,2.93,3.88v9.13H19.26V46.65a4.29,4.29,0,0,1,2.93-3.88l7.72-2.2V36"/><path class="cls-2" d="M43.61,27.69c0,5.5-4.09,10-9.13,10s-9.13-4.46-9.13-10,4.08-10,9.13-10S43.61,22.2,43.61,27.69Z"/><path class="cls-2" d="M43.51,25.88C42,27.4,37.64,27.4,36,24.35c-3,3-8,3-10.45,1.3"/><path class="cls-2" d="M61.87,5.57h3A6.11,6.11,0,0,1,71,11.65v9.13H61.87"/><polyline class="cls-2" points="61.87 20.78 71 20.78 71 36 61.87 36"/><polyline class="cls-2" points="61.87 36 71 36 71 51.22 61.87 51.22"/><path class="cls-2" d="M61.87,51.22H71v9.13a6.11,6.11,0,0,1-6.09,6.08h-3"/></g></g></svg>