<?xml version="1.0" encoding="utf-8"?>
<!-- Generator: Adobe Illustrator 23.0.1, SVG Export Plug-In . SVG Version: 6.00 Build 0)  -->
<svg version="1.1" id="Layer_1" xmlns="http://www.w3.org/2000/svg" xmlns:xlink="http://www.w3.org/1999/xlink" x="0px" y="0px"
	 viewBox="0 0 72 53.7" style="enable-background:new 0 0 72 53.7;" xml:space="preserve">
<style type="text/css">
	.st0{fill:none;stroke:#444444;stroke-width:2;stroke-linejoin:round;}
</style>
<title>roomsign</title>
<g>
	<g id="Layer_1-2">
		<path class="st0" d="M7.1,1h57.8C68.3,1,71,3.7,71,7.1v39.6c0,3.4-2.7,6.1-6.1,6.1H7.1C3.7,52.7,1,50,1,46.7V7.1
			C1,3.7,3.7,1,7.1,1z"/>
		<rect x="13.2" y="7.1" class="st0" width="48.7" height="39.6"/>
		<path class="st0" d="M68,26.9c0-0.8-0.7-1.5-1.5-1.5c-0.8,0-1.5,0.7-1.5,1.5c0,0.8,0.7,1.5,1.5,1.5c0,0,0,0,0,0
			C67.3,28.4,68,27.7,68,26.9C68,26.9,68,26.9,68,26.9z"/>
		<path class="st0" d="M7.1,28.4c-0.8,0-1.5-0.7-1.5-1.5l0,0l0,0c0-0.8,0.7-1.5,1.5-1.5h0l0,0c0.8,0,1.5,0.7,1.5,1.5l0,0l0,0
			C8.6,27.7,7.9,28.4,7.1,28.4C7.1,28.4,7.1,28.4,7.1,28.4z"/>
	</g>
</g>
</svg>
