<svg xmlns="http://www.w3.org/2000/svg" viewBox="0 0 32 32"><defs><style>.cls-1{fill:#2caae1;}</style></defs><title>twitterhover</title><g id="Layer_2" data-name="Layer 2"><g id="RAW_ICONS_-_SQUARE_ROUNDED_CIRCLE" data-name="RAW ICONS - SQUARE / ROUNDED / CIRCLE"><path class="cls-1" d="M16,0A16,16,0,1,0,32,16,16,16,0,0,0,16,0Zm6.36,12.74c0,.14,0,.28,0,.42A9.34,9.34,0,0,1,8,21a6.79,6.79,0,0,0,.78,0,6.58,6.58,0,0,0,4.08-1.4,3.3,3.3,0,0,1-3.07-2.28,3.22,3.22,0,0,0,1.49-.06,3.29,3.29,0,0,1-2.64-3.22v0a3.29,3.29,0,0,0,1.49.41,3.29,3.29,0,0,1-1-4.38,9.32,9.32,0,0,0,6.77,3.43,3.08,3.08,0,0,1-.09-.75,3.28,3.28,0,0,1,5.68-2.24,6.62,6.62,0,0,0,2.09-.8,3.29,3.29,0,0,1-1.44,1.81A6.31,6.31,0,0,0,24,11,6.63,6.63,0,0,1,22.36,12.74Z"/></g></g></svg>