<?xml version="1.0" encoding="utf-8"?>
<!-- Generator: Adobe Illustrator 23.0.1, SVG Export Plug-In . SVG Version: 6.00 Build 0)  -->
<svg version="1.1" id="Layer_1" xmlns="http://www.w3.org/2000/svg" xmlns:xlink="http://www.w3.org/1999/xlink" x="0px" y="0px"
	 viewBox="0 0 72 53.7" style="enable-background:new 0 0 72 53.7;" xml:space="preserve">
<style type="text/css">
	.st0{fill:none;stroke:#444444;stroke-width:2;stroke-linejoin:round;}
</style>
<title>webapp</title>
<g>
	<g id="Layer_1-2">
		<polygon class="st0" points="61.9,37.5 36,37.5 10.1,37.5 10.1,7.1 61.9,7.1 		"/>
		<path class="st0" d="M4,43.6v-38C4,3.1,6,1,8.5,1c0,0,0.1,0,0.1,0h54.8C65.9,1,68,3,68,5.5c0,0,0,0,0,0v38"/>
		<path class="st0" d="M43.6,43.6v3H28.4v-3H1v6.1c0,1.7,1.3,3,3,3h64c1.7,0,3-1.3,3-3v-6.1H43.6z"/>
	</g>
</g>
</svg>
