<svg xmlns="http://www.w3.org/2000/svg" viewBox="0 0 32 32"><defs><style>.cls-1{fill:#ee3537;}</style></defs><title>youtubehover</title><g id="Layer_2" data-name="Layer 2"><g id="RAW_ICONS_-_SQUARE_ROUNDED_CIRCLE" data-name="RAW ICONS - SQUARE / ROUNDED / CIRCLE"><path class="cls-1" d="M15.86,13.56a.39.39,0,0,0,.29-.1.34.34,0,0,0,.11-.28V10.75a.28.28,0,0,0-.11-.24.44.44,0,0,0-.29-.09.4.4,0,0,0-.27.09.3.3,0,0,0-.11.24v2.43a.41.41,0,0,0,.1.28A.37.37,0,0,0,15.86,13.56Z"/><path class="cls-1" d="M17.87,18.05a.71.71,0,0,0-.37.1,1.14,1.14,0,0,0-.35.28V16.66h-.82v5.49h.82v-.31a1,1,0,0,0,.35.27.93.93,0,0,0,.42.09.66.66,0,0,0,.55-.23,1,1,0,0,0,.19-.66V19.07a1.23,1.23,0,0,0-.2-.76A.72.72,0,0,0,17.87,18.05Zm0,3.15a.5.5,0,0,1-.07.28.27.27,0,0,1-.22.09.46.46,0,0,1-.2-.05.46.46,0,0,1-.19-.14V18.86a.64.64,0,0,1,.17-.13.47.47,0,0,1,.17,0,.31.31,0,0,1,.25.11.46.46,0,0,1,.09.31Z"/><polygon class="cls-1" points="10.26 17.46 11.2 17.46 11.2 22.15 12.11 22.15 12.11 17.46 13.06 17.46 13.06 16.66 10.26 16.66 10.26 17.46"/><path class="cls-1" d="M14.91,21.18a1,1,0,0,1-.25.21.42.42,0,0,1-.22.09.19.19,0,0,1-.17-.07.34.34,0,0,1,0-.2V18.1h-.81v3.39a.89.89,0,0,0,.14.54.52.52,0,0,0,.43.18,1,1,0,0,0,.47-.13,1.92,1.92,0,0,0,.46-.37v.44h.81v-4h-.81Z"/><path class="cls-1" d="M16,0A16,16,0,1,0,32,16,16,16,0,0,0,16,0Zm1.93,9.76h.91v3.42a.35.35,0,0,0,.06.23.21.21,0,0,0,.18.07.54.54,0,0,0,.26-.09,1.55,1.55,0,0,0,.28-.24V9.76h.91v4.46h-.91v-.49a1.81,1.81,0,0,1-.53.41,1.06,1.06,0,0,1-.52.15.58.58,0,0,1-.48-.2.92.92,0,0,1-.16-.6Zm-3.38,1a1,1,0,0,1,.36-.82,1.49,1.49,0,0,1,1-.31,1.36,1.36,0,0,1,.93.32,1.09,1.09,0,0,1,.36.84v2.3a1.19,1.19,0,0,1-.35.9,1.57,1.57,0,0,1-1.94,0,1.23,1.23,0,0,1-.35-.91Zm-2.49-2.6.67,2.41h.06l.64-2.41h1l-1.19,3.53v2.51h-1V11.83L11,8.18ZM24,20.9a2.93,2.93,0,0,1-2.92,2.93H10.92A2.93,2.93,0,0,1,8,20.9V18.55a2.92,2.92,0,0,1,2.92-2.92H21.08A2.92,2.92,0,0,1,24,18.55Z"/><path class="cls-1" d="M20.31,18a1.22,1.22,0,0,0-.88.33,1.15,1.15,0,0,0-.35.86V21a1.29,1.29,0,0,0,.32.92,1.1,1.1,0,0,0,.85.33,1.19,1.19,0,0,0,.91-.31,1.29,1.29,0,0,0,.31-.94V20.8h-.84V21a.83.83,0,0,1-.08.47.32.32,0,0,1-.28.1.29.29,0,0,1-.27-.12.81.81,0,0,1-.08-.45v-.76h1.55v-1a1.19,1.19,0,0,0-.3-.88A1.13,1.13,0,0,0,20.31,18Zm.32,1.59h-.71v-.41a.64.64,0,0,1,.08-.36.32.32,0,0,1,.28-.11.31.31,0,0,1,.27.11.64.64,0,0,1,.08.36Z"/></g></g></svg>